<?xml version="1.0" encoding="utf-8"?>
<!-- Generator: Adobe Illustrator 21.0.0, SVG Export Plug-In . SVG Version: 6.00 Build 0)  -->
<svg version="1.1" id="Layer_1" xmlns="http://www.w3.org/2000/svg" xmlns:xlink="http://www.w3.org/1999/xlink" x="0px" y="0px"
	 viewBox="0 0 2560 1440" style="enable-background:new 0 0 2560 1440;" xml:space="preserve">
<style type="text/css">
	.st0{clip-path:url(#SVGID_2_);}
	.st1{fill:#34A853;}
	.st2{fill:#EB4235;}
	.st3{fill:#FABD05;}
	.st4{fill:#4385F5;stroke:#4385F5;stroke-miterlimit:10;}
</style>
<g>
	<defs>
		<rect id="SVGID_1_" x="1" y="-2" width="2559" height="1442"/>
	</defs>
	<clipPath id="SVGID_2_">
		<use xlink:href="#SVGID_1_"  style="overflow:visible;"/>
	</clipPath>
	<g class="st0">
		<g>
			
				<rect x="2029.6" y="-919.9" transform="matrix(0.7071 -0.7071 0.7071 0.7071 413.3163 1674.0363)" class="st1" width="395.6" height="2516"/>
		</g>
		<g>
			<path class="st2" d="M1314,157C710.9,157,222,645.9,222,1249s488.9,1092,1092,1092s1092-488.9,1092-1092S1917.1,157,1314,157z
				 M1314,2108c-474.4,0-859-384.6-859-859s384.6-859,859-859s859,384.6,859,859S1788.4,2108,1314,2108z"/>
		</g>
		<circle class="st3" cx="300" cy="297" r="299"/>
		<circle class="st4" cx="708.5" cy="197.5" r="120.5"/>
	</g>
</g>
</svg>
