<?xml version="1.0" encoding="UTF-8" standalone="no"?>
<svg
   xmlns:dc="http://purl.org/dc/elements/1.1/"
   xmlns:cc="http://creativecommons.org/ns#"
   xmlns:rdf="http://www.w3.org/1999/02/22-rdf-syntax-ns#"
   xmlns:svg="http://www.w3.org/2000/svg"
   xmlns="http://www.w3.org/2000/svg"
   viewBox="0 0 3413.3333 1920"
   height="1920"
   width="3413.3333"
   xml:space="preserve"
   id="svg2"
   version="1.1"><metadata
     id="metadata8"><rdf:RDF><cc:Work
         rdf:about=""><dc:format>image/svg+xml</dc:format><dc:type
           rdf:resource="http://purl.org/dc/dcmitype/StillImage" /></cc:Work></rdf:RDF></metadata><defs
     id="defs6" /><g
     transform="matrix(1.3333333,0,0,-1.3333333,0,1920)"
     id="g10"><g
       transform="scale(0.1)"
       id="g12"><path
         id="path14"
         style="fill:#eb3030;fill-opacity:1;fill-rule:nonzero;stroke:none"
         d="m 16255,14425 c 0,-4053.8 -3286.2,-7340 -7340,-7340 -4053.77,0 -7340,3286.2 -7340,7340 0,4053.8 3286.23,7340 7340,7340 4053.8,0 7340,-3286.2 7340,-7340" /><path
         id="path16"
         style="fill:#3bad49;fill-opacity:1;fill-rule:nonzero;stroke:none"
         d="M 6358.93,-11405.4 -12280.4,7233.93 -3278.93,16235.4 15360.4,-2403.9 6358.93,-11405.4" /><g
         transform="scale(1.57055)"
         id="g18"><path
           id="path20"
           style="fill:#5878c5;fill-opacity:1;fill-rule:nonzero;stroke:none"
           d="m 8127.72,-1413.52 c 0,6644.43 5386.38,12030.82 12030.78,12030.82 6644.4,0 12030.8,-5386.39 12030.8,-12030.82 0,-6644.41 -5386.4,-12030.78 -12030.8,-12030.78 -6644.4,0 -12030.78,5386.37 -12030.78,12030.78" /></g><g
         transform="scale(1.0362)"
         id="g22"><path
           id="path24"
           style="fill:#f6b70b;fill-opacity:1;fill-rule:nonzero;stroke:none"
           d="m 16300,9563.82 c 0,522.38 -423.5,945.78 -945.8,945.78 -522.3,0 -945.7,-423.4 -945.7,-945.78 0,-522.33 423.4,-945.76 945.7,-945.76 522.3,0 945.8,423.43 945.8,945.76" /></g><g
         transform="scale(1.57055)"
         id="g26"><path
           id="path28"
           style="fill:#ffffff;fill-opacity:1;fill-rule:nonzero;stroke:none"
           d="m 11473.7,-1241.6 c 0,4796.5 3888.3,8684.84 8684.8,8684.84 4796.5,0 8684.9,-3888.34 8684.9,-8684.84 0,-4796.53 -3888.4,-8684.85 -8684.9,-8684.85 -4796.5,0 -8684.8,3888.32 -8684.8,8684.85" /></g></g></g></svg>